<?xml version="1.0" standalone="no"?>
<!DOCTYPE svg PUBLIC "-//W3C//DTD SVG 20010904//EN"
 "http://www.w3.org/TR/2001/REC-SVG-20010904/DTD/svg10.dtd">
<svg version="1.0" xmlns="http://www.w3.org/2000/svg"
 width="704.000000pt" height="704.000000pt" viewBox="0 0 704.000000 704.000000"
 preserveAspectRatio="xMidYMid meet">

<g transform="translate(0.000000,704.000000) scale(0.100000,-0.100000)"
fill="#000000" stroke="none">
<path d="M3165 6924 c-1423 -163 -2595 -1199 -2924 -2586 -65 -271 -91 -498
-91 -793 0 -544 114 -1033 351 -1509 241 -484 576 -886 1006 -1208 515 -386
1117 -615 1759 -669 173 -14 555 -6 714 16 600 82 1127 297 1605 655 761 571
1244 1425 1340 2372 19 184 19 515 0 691 -70 666 -311 1252 -731 1782 -115
145 -379 408 -529 527 -523 416 -1143 666 -1800 728 -152 14 -555 11 -700 -6z
m705 -214 c883 -91 1697 -553 2224 -1262 551 -743 751 -1662 560 -2573 -206
-977 -898 -1828 -1815 -2234 -314 -138 -608 -218 -949 -256 -156 -17 -499 -20
-651 -5 -618 61 -1202 299 -1684 686 -147 118 -380 351 -497 499 -381 479
-613 1049 -679 1665 -15 143 -15 490 0 630 68 621 282 1154 665 1650 92 120
372 406 491 502 415 336 917 568 1435 662 117 21 185 29 430 50 71 6 355 -3
470 -14z"/>
<path d="M3131 5585 c72 -80 130 -148 127 -150 -3 -3 -61 45 -129 106 -68 61
-135 121 -149 133 l-25 21 25 -30 c14 -17 66 -75 115 -130 119 -133 132 -149
118 -144 -6 2 -33 24 -60 49 -109 101 -223 201 -223 196 0 -4 15 -24 34 -44
152 -168 208 -233 204 -237 -3 -3 -61 46 -129 107 -142 129 -176 156 -138 113
14 -17 85 -98 158 -182 l133 -152 43 5 c68 10 110 -11 197 -96 43 -42 78 -82
78 -88 0 -9 -260 -241 -491 -437 -59 -49 -114 -105 -123 -123 -20 -40 -21 -98
-2 -105 13 -5 65 4 98 18 9 3 94 97 189 208 206 241 351 405 361 406 7 1 255
-275 430 -480 121 -141 145 -159 214 -159 33 0 34 2 34 38 0 43 -28 93 -73
131 -18 14 -139 121 -270 236 -131 116 -254 224 -274 241 l-34 30 46 43 c25
23 61 48 78 55 38 16 143 30 112 16 -38 -18 78 2 133 22 102 38 183 114 238
225 34 66 36 77 32 142 -3 64 -7 74 -38 106 -18 19 -49 40 -68 46 -50 17 -135
5 -201 -28 -68 -34 -186 -146 -177 -169 4 -10 2 -13 -6 -8 -8 5 -9 2 -5 -9 4
-10 2 -16 -5 -14 -20 4 -58 -141 -51 -194 7 -65 -9 -107 -65 -162 l-48 -47
-86 88 c-92 94 -107 124 -94 200 l5 37 -155 135 c-86 74 -167 145 -180 158
-58 52 -27 13 97 -123z m1066 -46 c-12 -97 -84 -211 -171 -271 -17 -12 -3 7
32 42 70 71 118 159 128 231 4 27 9 49 12 49 2 0 2 -23 -1 -51z m-502 -129
c-8 -36 -14 -89 -15 -119 0 -72 -9 -61 -11 14 -2 52 25 184 36 173 2 -2 -3
-32 -10 -68z m-343 -27 c-9 -28 -9 -27 -10 11 0 25 3 35 10 28 7 -7 7 -20 0
-39z m-333 -929 c-15 -18 -63 -44 -81 -44 -7 0 6 9 28 19 23 10 45 24 48 30 4
6 10 11 13 11 3 0 0 -7 -8 -16z m1106 -32 c11 -6 15 -12 8 -12 -7 0 -22 10
-35 23 -13 12 -17 17 -8 11 8 -6 24 -16 35 -22z"/>
<path d="M3775 3737 c-95 -32 -167 -96 -209 -187 -36 -77 -37 -201 -2 -277 30
-64 89 -124 158 -160 47 -24 64 -27 153 -28 86 0 107 3 149 24 263 130 257
494 -10 613 -60 26 -181 34 -239 15z m182 -154 c106 -50 125 -239 32 -317
-141 -119 -339 37 -275 217 36 101 146 146 243 100z"/>
<path d="M2850 3415 l0 -325 79 0 78 0 -4 198 -4 197 54 -85 c31 -47 76 -119
102 -160 107 -169 86 -150 165 -150 l70 0 0 325 0 326 -77 -3 -76 -3 2 -200
c2 -178 0 -198 -13 -180 -8 12 -64 102 -124 200 l-110 180 -71 3 -71 3 0 -326z"/>
<path d="M3005 2691 c-97 -25 -187 -101 -228 -189 -30 -66 -30 -207 -1 -272
31 -67 94 -132 160 -165 53 -27 69 -30 154 -30 76 0 104 4 141 21 81 38 149
111 177 192 l11 32 -89 0 -88 0 -22 -35 c-48 -77 -159 -93 -235 -33 -64 50
-85 177 -42 253 33 59 78 85 146 85 67 0 108 -22 140 -74 l23 -36 84 0 c84 0
85 0 78 23 -43 139 -158 228 -303 233 -42 2 -89 0 -106 -5z"/>
<path d="M5127 2686 c-54 -20 -107 -63 -123 -102 -8 -18 -14 -55 -14 -82 0
-80 37 -120 163 -181 57 -27 107 -57 111 -66 17 -47 -6 -85 -53 -85 -32 0 -56
23 -66 63 -7 27 -8 27 -86 26 l-79 -1 0 -38 c0 -80 58 -154 139 -179 48 -14
134 -14 183 -1 132 37 179 207 85 308 -12 13 -65 46 -118 72 -112 57 -126 70
-113 108 8 22 17 28 46 30 32 3 39 -1 53 -27 15 -31 16 -31 95 -31 76 0 80 1
80 23 -1 38 -36 103 -71 129 -65 48 -155 61 -232 34z"/>
<path d="M1640 2365 l0 -325 80 0 79 0 3 101 3 100 63 -87 c35 -48 66 -93 69
-101 4 -9 30 -13 99 -13 52 0 94 2 94 6 0 3 -24 35 -53 72 -29 37 -65 83 -80
103 l-28 37 46 22 c68 33 99 85 103 174 3 59 -1 79 -20 115 -50 97 -115 121
-329 121 l-129 0 0 -325z m294 154 c21 -16 26 -29 26 -64 0 -66 -40 -95 -131
-95 l-29 0 0 90 0 90 54 0 c39 0 60 -6 80 -21z"/>
<path d="M2260 2365 l0 -325 180 0 180 0 0 75 0 75 -100 0 -100 0 0 55 0 55
100 0 100 0 0 70 0 70 -100 0 -100 0 0 50 0 50 100 0 100 0 0 75 0 75 -180 0
-180 0 0 -325z"/>
<path d="M3560 2365 l0 -325 80 0 80 0 0 325 0 325 -80 0 -80 0 0 -325z"/>
<path d="M3890 2366 l0 -326 80 0 80 0 0 99 0 98 86 6 c104 7 165 34 199 86
78 118 46 274 -68 333 -37 19 -62 22 -209 26 l-168 4 0 -326z m293 163 c12 -7
25 -17 29 -23 16 -23 8 -67 -17 -91 -20 -21 -34 -25 -85 -25 l-60 0 0 75 0 75
56 0 c30 0 65 -5 77 -11z"/>
<path d="M4500 2365 l0 -325 180 0 180 0 0 75 0 75 -100 0 -100 0 0 55 0 55
95 0 95 0 0 70 0 70 -95 0 -95 0 0 50 0 50 100 0 100 0 0 75 0 75 -180 0 -180
0 0 -325z"/>
</g>
</svg>
