<?xml version="1.0" standalone="no"?>
<!DOCTYPE svg PUBLIC "-//W3C//DTD SVG 20010904//EN"
 "http://www.w3.org/TR/2001/REC-SVG-20010904/DTD/svg10.dtd">
<svg version="1.0" xmlns="http://www.w3.org/2000/svg"
 width="225.000000pt" height="225.000000pt" viewBox="0 0 225.000000 225.000000"
 preserveAspectRatio="xMidYMid meet">

<g transform="translate(0.000000,225.000000) scale(0.100000,-0.100000)"
fill="#000000" stroke="none">
<path d="M990 2209 c-405 -52 -766 -353 -888 -739 -41 -131 -47 -173 -47 -340
0 -141 4 -178 24 -255 111 -427 445 -736 876 -812 128 -22 317 -13 450 21 304
78 565 291 700 569 258 534 57 1155 -465 1440 -181 99 -433 144 -650 116z
m315 -74 c212 -37 393 -131 546 -284 90 -91 146 -171 205 -295 69 -145 88
-241 88 -426 0 -137 -3 -166 -26 -252 -52 -187 -141 -340 -275 -469 -131 -127
-281 -214 -448 -259 -121 -34 -348 -39 -472 -11 -380 84 -664 354 -775 737
-20 70 -23 100 -22 259 0 212 15 279 93 440 201 410 642 637 1086 560z"/>
<path d="M1239 1815 c-36 -19 -55 -52 -63 -106 -4 -27 -15 -54 -27 -65 -20
-18 -21 -18 -50 14 -16 18 -29 43 -29 56 0 16 -15 36 -47 62 -27 21 -39 28
-29 16 19 -22 19 -22 0 -19 -10 1 -26 7 -34 11 -8 5 -4 -3 9 -17 13 -15 27
-24 31 -22 4 3 14 -3 21 -13 13 -15 12 -16 -3 -3 -15 11 -18 11 -18 0 0 -7
-17 3 -37 22 l-38 34 34 -37 c19 -21 37 -35 41 -33 4 3 7 -3 6 -12 -1 -11 10
-19 32 -24 32 -6 82 -44 82 -60 0 -4 -45 -47 -100 -94 -98 -85 -119 -115 -81
-115 11 0 47 33 90 84 109 128 154 166 196 166 26 0 43 8 62 28 15 15 23 20
18 12 -5 -9 -5 -12 1 -7 5 5 9 12 10 15 0 4 6 20 12 35 7 16 12 36 12 46 0 40
-51 53 -101 26z m-208 -62 c13 -16 12 -17 -3 -4 -17 13 -22 21 -14 21 2 0 10
-8 17 -17z"/>
<path d="M1159 1583 c36 -51 166 -183 179 -183 6 0 12 6 12 13 0 7 -6 20 -12
29 -18 22 -186 168 -193 168 -4 0 3 -12 14 -27z"/>
<path d="M1179 1177 c-57 -38 -64 -113 -14 -163 35 -35 112 -34 148 2 53 53
39 142 -27 169 -48 20 -67 19 -107 -8z m109 -59 c17 -36 1 -75 -34 -84 -54
-14 -91 43 -60 91 24 36 75 32 94 -7z"/>
<path d="M910 1090 l0 -100 25 0 c24 0 25 3 25 63 l0 62 38 -62 c28 -47 43
-63 60 -63 21 0 22 3 22 100 0 98 0 100 -23 100 -22 0 -23 -3 -19 -60 2 -33 2
-60 -1 -60 -3 0 -22 27 -42 60 -28 47 -42 60 -61 60 -24 0 -24 -1 -24 -100z"/>
<path d="M528 755 c3 -96 5 -105 23 -105 14 0 19 7 19 30 0 17 4 30 8 30 4 0
16 -13 25 -30 14 -23 25 -30 49 -30 l30 0 -26 34 -26 35 25 25 c32 32 32 60 0
91 -19 20 -34 25 -77 25 l-53 0 3 -105z m100 33 c3 -18 -32 -43 -48 -33 -6 3
-10 17 -10 31 0 22 4 25 27 22 16 -2 29 -10 31 -20z"/>
<path d="M722 758 l3 -103 58 -3 c55 -3 57 -2 57 23 0 22 -4 25 -36 25 -28 0
-35 3 -32 18 2 11 13 17 33 17 23 1 31 6 33 23 3 19 -1 22 -32 22 -25 0 -36 4
-36 15 0 10 11 15 35 15 31 0 35 3 35 25 0 24 -3 25 -60 25 l-61 0 3 -102z"/>
<path d="M931 846 c-31 -17 -50 -53 -51 -94 0 -26 9 -43 35 -69 33 -33 39 -35
82 -30 35 4 53 12 70 32 13 14 23 30 23 36 0 16 -40 10 -70 -12 -28 -21 -30
-21 -55 -5 -14 9 -29 24 -32 32 -9 25 7 64 33 76 20 10 29 8 54 -10 31 -23 70
-29 70 -11 0 6 -13 24 -29 40 -33 32 -87 39 -130 15z"/>
<path d="M1140 755 l0 -105 25 0 25 0 0 105 0 105 -25 0 -25 0 0 -105z"/>
<path d="M1242 758 c3 -98 4 -103 26 -106 19 -3 22 1 22 32 0 34 2 36 33 36
43 0 65 17 73 57 5 26 1 37 -19 57 -22 22 -35 26 -82 26 l-56 0 3 -102z m105
36 c7 -18 -12 -34 -39 -34 -13 0 -18 8 -18 25 0 20 5 25 25 25 14 0 28 -7 32
-16z"/>
<path d="M1440 755 l0 -105 55 0 c52 0 55 1 55 25 0 21 -5 25 -30 25 -24 0
-30 4 -30 21 0 18 5 21 30 17 26 -4 30 -1 30 19 0 19 -5 23 -30 23 -20 0 -30
5 -30 15 0 10 10 15 30 15 25 0 30 4 30 25 0 24 -3 25 -55 25 l-55 0 0 -105z"/>
<path d="M1616 841 c-30 -33 -17 -72 31 -99 28 -15 40 -28 36 -37 -7 -19 -29
-19 -37 0 -3 8 -17 15 -31 15 -31 0 -33 -22 -5 -50 37 -37 112 -22 124 24 9
36 -2 55 -45 77 -39 19 -53 49 -24 49 8 0 15 -4 15 -10 0 -5 11 -10 25 -10 15
0 25 6 25 14 0 44 -82 63 -114 27z"/>
<path d="M722 480 c0 -19 2 -27 5 -17 2 9 2 25 0 35 -3 9 -5 1 -5 -18z"/>
<path d="M951 484 c-1 -19 4 -31 12 -31 7 0 13 8 13 18 0 10 -3 16 -7 13 -4
-2 -10 4 -12 13 -3 10 -5 4 -6 -13z"/>
<path d="M1101 478 c1 -24 3 -27 6 -10 2 12 8 22 13 22 5 0 11 -10 13 -22 l4
-23 2 22 c0 13 -7 27 -19 33 -18 10 -20 8 -19 -22z"/>
<path d="M1217 503 c-2 -5 -1 -19 4 -33 7 -23 7 -23 8 8 1 31 -3 40 -12 25z"/>
<path d="M1331 478 c1 -24 3 -27 6 -10 2 12 8 22 13 22 5 0 11 -10 13 -22 l4
-23 2 22 c0 13 -7 27 -19 33 -18 10 -20 8 -19 -22z"/>
<path d="M860 488 c14 -17 12 -28 -4 -28 -8 0 -17 8 -19 18 -4 16 -5 16 -6 -1
-1 -22 26 -34 42 -18 8 8 7 15 -6 26 -9 8 -12 10 -7 3z"/>
<path d="M910 496 c0 -2 8 -10 18 -17 15 -13 16 -12 3 4 -13 16 -21 21 -21 13z"/>
<path d="M1020 497 c0 -5 5 -18 11 -29 9 -17 13 -18 20 -7 7 11 9 11 9 1 0 -7
5 -10 10 -7 6 3 10 11 10 16 0 6 -4 7 -10 4 -5 -3 -10 0 -10 7 0 10 -2 10 -9
-1 -7 -11 -11 -10 -20 5 -6 11 -11 15 -11 11z"/>
<path d="M1160 485 c-15 -18 -5 -35 21 -35 13 0 19 6 18 23 -1 16 -2 18 -6 5
-2 -10 -11 -18 -19 -18 -17 0 -18 12 -2 28 7 7 9 12 6 12 -3 0 -11 -7 -18 -15z"/>
<path d="M1390 485 c-15 -18 -5 -35 21 -35 13 0 19 6 18 23 -1 16 -2 18 -6 5
-2 -10 -11 -18 -19 -18 -17 0 -18 12 -2 28 7 7 9 12 6 12 -3 0 -11 -7 -18 -15z"/>
<path d="M1507 494 c-12 -13 -7 -24 11 -25 15 0 14 -2 -3 -10 l-20 -9 20 3
c12 1 20 10 20 21 0 20 -16 31 -28 20z"/>
<path d="M774 470 c1 -8 10 -16 21 -17 15 -1 15 0 3 3 -9 3 -19 11 -21 17 -2
7 -3 5 -3 -3z"/>
<path d="M894 470 c1 -8 10 -16 21 -17 15 -1 15 0 3 3 -9 3 -19 11 -21 17 -2
7 -3 5 -3 -3z"/>
<path d="M1450 471 c11 -22 13 -23 22 -7 5 10 7 20 4 23 -3 4 -6 1 -6 -7 0
-10 -3 -10 -17 1 -15 13 -15 12 -3 -10z"/>
</g>
</svg>
